<svg xmlns="http://www.w3.org/2000/svg" viewBox="0 0 480 320" preserveAspectRatio="xMidYMid slice">
<defs>
    <filter id="soft" x="-50%" y="-50%" width="200%" height="200%"><feGaussianBlur stdDeviation="6"/></filter>
    <filter id="softer" x="-50%" y="-50%" width="200%" height="200%"><feGaussianBlur stdDeviation="2.4"/></filter>
    <filter id="lift" x="-30%" y="-30%" width="160%" height="160%"><feDropShadow dx="0" dy="4" stdDeviation="4" flood-color="#020617" flood-opacity="0.5"/></filter>
    <filter id="grain" x="0" y="0" width="100%" height="100%">
        <feTurbulence type="fractalNoise" baseFrequency="0.9" numOctaves="2" seed="7" result="noise"/>
        <feColorMatrix in="noise" type="matrix" values="0 0 0 0 1  0 0 0 0 1  0 0 0 0 1  0 0 0 0.09 0"/>
        <feComposite in2="SourceGraphic" operator="in"/>
    </filter>
    <radialGradient id="vignette" cx="0.5" cy="0.42" r="0.75">
        <stop offset="0.55" stop-color="#020617" stop-opacity="0"/>
        <stop offset="1" stop-color="#020617" stop-opacity="0.72"/>
    </radialGradient>
    <radialGradient id="spot" cx="0.5" cy="0.15" r="0.7">
        <stop offset="0" stop-color="#FFF6E0" stop-opacity="0.22"/>
        <stop offset="1" stop-color="#FFF6E0" stop-opacity="0"/>
    </radialGradient>
    <linearGradient id="card-face" x1="0" y1="0" x2="1" y2="1">
        <stop offset="0" stop-color="#FFFFFF"/>
        <stop offset="1" stop-color="#E2E8F0"/>
    </linearGradient>
    <linearGradient id="card-back" x1="0" y1="0" x2="1" y2="1">
        <stop offset="0" stop-color="#3B6FE0"/>
        <stop offset="1" stop-color="#172E7A"/>
    </linearGradient>
    <pattern id="lattice" width="8" height="8" patternUnits="userSpaceOnUse" patternTransform="rotate(45)">
        <path d="M0 0H8M0 0V8" stroke="#93C5FD" stroke-width="1" opacity="0.32"/>
    </pattern>
    <radialGradient id="gloss" cx="0.25" cy="0.12" r="0.95">
        <stop offset="0" stop-color="#FFFFFF" stop-opacity="0.3"/>
        <stop offset="1" stop-color="#FFFFFF" stop-opacity="0"/>
    </radialGradient>
    <radialGradient id="pip" cx="0.4" cy="0.35" r="0.7">
        <stop offset="0" stop-color="#FFFFFF"/>
        <stop offset="1" stop-color="#D5DDE8"/>
    </radialGradient>
    <path id="heart" d="M0 7.5C-1.2 6.4-12 -1.1-12 -7.6C-12 -12-8.6-15-5-15C-2.6-15-0.8-13.7 0-12C0.8-13.7 2.6-15 5-15C8.6-15 12-12 12-7.6C12-1.1 1.2 6.4 0 7.5Z"/>
    <path id="spade" d="M0 -15C-1.2 -12.6-12 -5.8-12 1.6C-12 6-8.8 8.6-5.4 8.6C-3.4 8.6-1.8 7.7-0.9 6.4C-1.1 9.6-2.4 12.2-4.6 14H4.6C2.4 12.2 1.1 9.6 0.9 6.4C1.8 7.7 3.4 8.6 5.4 8.6C8.8 8.6 12 6 12 1.6C12 -5.8 1.2 -12.6 0 -15Z"/>
    <path id="diamond" d="M0 -15L10.5 0L0 15L-10.5 0Z"/>
    <path id="club" d="M0 -15A6.2 6.2 0 0 1 5.4 -5.8A6.2 6.2 0 1 1 1.6 5.2C1.9 8.6 3.1 11.6 5 14H-5C-3.1 11.6-1.9 8.6-1.6 5.2A6.2 6.2 0 1 1-5.4 -5.8A6.2 6.2 0 0 1 0 -15Z"/><radialGradient id="surface" cx="0.5" cy="0.35" r="0.8"><stop offset="0" stop-color="#2E8A57"/><stop offset="1" stop-color="#0B3320"/></radialGradient>
</defs>
<rect width="480" height="320" fill="url(#surface)"/>
<rect width="480" height="320" fill="#FFFFFF" filter="url(#grain)"/>
<ellipse cx="240" cy="92" rx="170" ry="60" fill="#FFFFFF" opacity="0.05"/>
<g transform="translate(96 78) rotate(-24)" filter="url(#lift)">
    <rect x="-29" y="-40" width="58" height="80" rx="5.22" fill="url(#card-back)"/>
    <rect x="-24" y="-35" width="48" height="70" rx="3.1319999999999997" fill="url(#lattice)" stroke="#BFDBFE" stroke-opacity="0.55" stroke-width="1"/>
    <circle r="8.7" fill="#1E3A8A" stroke="#BFDBFE" stroke-width="1.2"/>
    <use href="#diamond" fill="#BFDBFE" transform="scale(0.34800000000000003)"/>
    <rect x="-29" y="-40" width="58" height="80" rx="5.22" fill="url(#gloss)"/>
</g>
<g transform="translate(104 74) rotate(-12)" filter="url(#lift)">
    <rect x="-29" y="-40" width="58" height="80" rx="5.22" fill="url(#card-back)"/>
    <rect x="-24" y="-35" width="48" height="70" rx="3.1319999999999997" fill="url(#lattice)" stroke="#BFDBFE" stroke-opacity="0.55" stroke-width="1"/>
    <circle r="8.7" fill="#1E3A8A" stroke="#BFDBFE" stroke-width="1.2"/>
    <use href="#diamond" fill="#BFDBFE" transform="scale(0.34800000000000003)"/>
    <rect x="-29" y="-40" width="58" height="80" rx="5.22" fill="url(#gloss)"/>
</g>
<g transform="translate(206 70) rotate(-10)" filter="url(#lift)">
    <rect x="-25" y="-35" width="50" height="70" rx="4.5" fill="url(#card-face)"/>
    <rect x="-24.4" y="-34.4" width="48.8" height="68.8" rx="4.5" fill="none" stroke="#CBD5E1" stroke-width="1.2"/>
    <g >
        <text x="-16.5" y="-21" font-family="Inter, 'Segoe UI', Arial, sans-serif" font-size="10" font-weight="800" fill="#0F172A" text-anchor="middle">7</text>
        <use href="#spade" fill="#0F172A" transform="translate(-16.5 -13.3) scale(0.33999999999999997)"/>
    </g>
    <g transform="rotate(180)">
        <text x="-16.5" y="-21" font-family="Inter, 'Segoe UI', Arial, sans-serif" font-size="10" font-weight="800" fill="#0F172A" text-anchor="middle">7</text>
        <use href="#spade" fill="#0F172A" transform="translate(-16.5 -13.3) scale(0.33999999999999997)"/>
    </g>
    <use href="#spade" fill="#0F172A" transform="translate(0 1.4000000000000001) scale(1.2)"/>
    <rect x="-25" y="-35" width="50" height="70" rx="4.5" fill="url(#gloss)"/>
</g>
<g transform="translate(252 64) rotate(4)" filter="url(#lift)">
    <rect x="-25" y="-35" width="50" height="70" rx="4.5" fill="url(#card-face)"/>
    <rect x="-24.4" y="-34.4" width="48.8" height="68.8" rx="4.5" fill="none" stroke="#CBD5E1" stroke-width="1.2"/>
    <g >
        <text x="-16.5" y="-21" font-family="Inter, 'Segoe UI', Arial, sans-serif" font-size="10" font-weight="800" fill="#0F172A" text-anchor="middle">9</text>
        <use href="#spade" fill="#0F172A" transform="translate(-16.5 -13.3) scale(0.33999999999999997)"/>
    </g>
    <g transform="rotate(180)">
        <text x="-16.5" y="-21" font-family="Inter, 'Segoe UI', Arial, sans-serif" font-size="10" font-weight="800" fill="#0F172A" text-anchor="middle">9</text>
        <use href="#spade" fill="#0F172A" transform="translate(-16.5 -13.3) scale(0.33999999999999997)"/>
    </g>
    <use href="#spade" fill="#0F172A" transform="translate(0 1.4000000000000001) scale(1.2)"/>
    <rect x="-25" y="-35" width="50" height="70" rx="4.5" fill="url(#gloss)"/>
</g>
<g transform="translate(300 70) rotate(14)" filter="url(#lift)">
    <rect x="-25" y="-35" width="50" height="70" rx="4.5" fill="url(#card-face)"/>
    <rect x="-24.4" y="-34.4" width="48.8" height="68.8" rx="4.5" fill="none" stroke="#CBD5E1" stroke-width="1.2"/>
    <g >
        <text x="-16.5" y="-21" font-family="Inter, 'Segoe UI', Arial, sans-serif" font-size="10" font-weight="800" fill="#0F172A" text-anchor="middle">A</text>
        <use href="#spade" fill="#0F172A" transform="translate(-16.5 -13.3) scale(0.33999999999999997)"/>
    </g>
    <g transform="rotate(180)">
        <text x="-16.5" y="-21" font-family="Inter, 'Segoe UI', Arial, sans-serif" font-size="10" font-weight="800" fill="#0F172A" text-anchor="middle">A</text>
        <use href="#spade" fill="#0F172A" transform="translate(-16.5 -13.3) scale(0.33999999999999997)"/>
    </g>
    <use href="#spade" fill="#0F172A" transform="translate(0 1.4000000000000001) scale(1.2)"/>
    <rect x="-25" y="-35" width="50" height="70" rx="4.5" fill="url(#gloss)"/>
</g>
<g opacity="0.9">
    <circle cx="398" cy="70" r="22" fill="#0B1220" opacity="0.35" filter="url(#softer)"/>
    <circle cx="396" cy="66" r="20" fill="#F8FAFC"/>
    <circle cx="396" cy="66" r="15" fill="none" stroke="#1D4ED8" stroke-width="2.5"/>
    <use href="#spade" fill="#1D4ED8" transform="translate(396 67) scale(0.62)"/>
</g>
<g transform="translate(183.81 212.92) rotate(-22)" filter="url(#lift)">
    <rect x="-42" y="-59" width="84" height="118" rx="7.56" fill="url(#card-face)"/>
    <rect x="-41.4" y="-58.4" width="82.8" height="116.8" rx="7.56" fill="none" stroke="#CBD5E1" stroke-width="1.2"/>
    <g >
        <text x="-27.72" y="-35.4" font-family="Inter, 'Segoe UI', Arial, sans-serif" font-size="16.8" font-weight="800" fill="#DC2626" text-anchor="middle">10</text>
        <use href="#diamond" fill="#DC2626" transform="translate(-27.72 -22.42) scale(0.5711999999999999)"/>
    </g>
    <g transform="rotate(180)">
        <text x="-27.72" y="-35.4" font-family="Inter, 'Segoe UI', Arial, sans-serif" font-size="16.8" font-weight="800" fill="#DC2626" text-anchor="middle">10</text>
        <use href="#diamond" fill="#DC2626" transform="translate(-27.72 -22.42) scale(0.5711999999999999)"/>
    </g>
    <use href="#diamond" fill="#DC2626" transform="translate(0 2.36) scale(2.016)"/>
    <rect x="-42" y="-59" width="84" height="118" rx="7.56" fill="url(#gloss)"/>
</g>
<g transform="translate(211.38 204.76) rotate(-11)" filter="url(#lift)">
    <rect x="-42" y="-59" width="84" height="118" rx="7.56" fill="url(#card-face)"/>
    <rect x="-41.4" y="-58.4" width="82.8" height="116.8" rx="7.56" fill="none" stroke="#CBD5E1" stroke-width="1.2"/>
    <g >
        <text x="-27.72" y="-35.4" font-family="Inter, 'Segoe UI', Arial, sans-serif" font-size="16.8" font-weight="800" fill="#0F172A" text-anchor="middle">J</text>
        <use href="#club" fill="#0F172A" transform="translate(-27.72 -22.42) scale(0.5711999999999999)"/>
    </g>
    <g transform="rotate(180)">
        <text x="-27.72" y="-35.4" font-family="Inter, 'Segoe UI', Arial, sans-serif" font-size="16.8" font-weight="800" fill="#0F172A" text-anchor="middle">J</text>
        <use href="#club" fill="#0F172A" transform="translate(-27.72 -22.42) scale(0.5711999999999999)"/>
    </g>
    <use href="#club" fill="#0F172A" transform="translate(0 2.36) scale(2.016)"/>
    <rect x="-42" y="-59" width="84" height="118" rx="7.56" fill="url(#gloss)"/>
</g>
<g transform="translate(240 202) rotate(0)" filter="url(#lift)">
    <rect x="-42" y="-59" width="84" height="118" rx="7.56" fill="url(#card-face)"/>
    <rect x="-41.4" y="-58.4" width="82.8" height="116.8" rx="7.56" fill="none" stroke="#CBD5E1" stroke-width="1.2"/>
    <g >
        <text x="-27.72" y="-35.4" font-family="Inter, 'Segoe UI', Arial, sans-serif" font-size="16.8" font-weight="800" fill="#DC2626" text-anchor="middle">Q</text>
        <use href="#heart" fill="#DC2626" transform="translate(-27.72 -22.42) scale(0.5711999999999999)"/>
    </g>
    <g transform="rotate(180)">
        <text x="-27.72" y="-35.4" font-family="Inter, 'Segoe UI', Arial, sans-serif" font-size="16.8" font-weight="800" fill="#DC2626" text-anchor="middle">Q</text>
        <use href="#heart" fill="#DC2626" transform="translate(-27.72 -22.42) scale(0.5711999999999999)"/>
    </g>
    <use href="#heart" fill="#DC2626" transform="translate(0 2.36) scale(2.016)"/>
    <rect x="-42" y="-59" width="84" height="118" rx="7.56" fill="url(#gloss)"/>
</g>
<g transform="translate(268.62 204.76) rotate(11)" filter="url(#lift)">
    <rect x="-42" y="-59" width="84" height="118" rx="7.56" fill="url(#card-face)"/>
    <rect x="-41.4" y="-58.4" width="82.8" height="116.8" rx="7.56" fill="none" stroke="#CBD5E1" stroke-width="1.2"/>
    <g >
        <text x="-27.72" y="-35.4" font-family="Inter, 'Segoe UI', Arial, sans-serif" font-size="16.8" font-weight="800" fill="#0F172A" text-anchor="middle">K</text>
        <use href="#spade" fill="#0F172A" transform="translate(-27.72 -22.42) scale(0.5711999999999999)"/>
    </g>
    <g transform="rotate(180)">
        <text x="-27.72" y="-35.4" font-family="Inter, 'Segoe UI', Arial, sans-serif" font-size="16.8" font-weight="800" fill="#0F172A" text-anchor="middle">K</text>
        <use href="#spade" fill="#0F172A" transform="translate(-27.72 -22.42) scale(0.5711999999999999)"/>
    </g>
    <use href="#spade" fill="#0F172A" transform="translate(0 2.36) scale(2.016)"/>
    <rect x="-42" y="-59" width="84" height="118" rx="7.56" fill="url(#gloss)"/>
</g>
<g transform="translate(296.19 212.92) rotate(22)" filter="url(#lift)">
    <rect x="-42" y="-59" width="84" height="118" rx="7.56" fill="url(#card-face)"/>
    <rect x="-41.4" y="-58.4" width="82.8" height="116.8" rx="7.56" fill="none" stroke="#CBD5E1" stroke-width="1.2"/>
    <g >
        <text x="-27.72" y="-35.4" font-family="Inter, 'Segoe UI', Arial, sans-serif" font-size="16.8" font-weight="800" fill="#DC2626" text-anchor="middle">A</text>
        <use href="#heart" fill="#DC2626" transform="translate(-27.72 -22.42) scale(0.5711999999999999)"/>
    </g>
    <g transform="rotate(180)">
        <text x="-27.72" y="-35.4" font-family="Inter, 'Segoe UI', Arial, sans-serif" font-size="16.8" font-weight="800" fill="#DC2626" text-anchor="middle">A</text>
        <use href="#heart" fill="#DC2626" transform="translate(-27.72 -22.42) scale(0.5711999999999999)"/>
    </g>
    <use href="#heart" fill="#DC2626" transform="translate(0 2.36) scale(2.016)"/>
    <rect x="-42" y="-59" width="84" height="118" rx="7.56" fill="url(#gloss)"/>
</g>
<rect width="480" height="320" fill="url(#spot)"/>
<rect width="480" height="320" fill="url(#vignette)"/>
</svg>
